<mxfile host="app.diagrams.net" modified="2023-11-28T21:36:02.481Z" agent="Mozilla/5.0 (Windows NT 10.0; Win64; x64) AppleWebKit/537.36 (KHTML, like Gecko) Chrome/119.0.0.0 Safari/537.36" etag="57Oeg-wQK0XNAvryZmTo" version="22.1.4" type="device">
  <diagram name="Страница — 1" id="27Dga72RAfMYqPkfEWNl">
    <mxGraphModel dx="1050" dy="539" grid="1" gridSize="10" guides="1" tooltips="1" connect="1" arrows="1" fold="1" page="1" pageScale="1" pageWidth="827" pageHeight="1169" math="0" shadow="0">
      <root>
        <mxCell id="0" />
        <mxCell id="1" parent="0" />
        <mxCell id="ewFjhbMQHwjGbqh-EtSD-15" value="" style="rounded=1;whiteSpace=wrap;html=1;" vertex="1" parent="1">
          <mxGeometry x="290" y="180" width="200" height="160" as="geometry" />
        </mxCell>
        <mxCell id="ewFjhbMQHwjGbqh-EtSD-16" value="Налаштування сповіщень про продлеми з освітленням в регіоні" style="text;html=1;strokeColor=none;fillColor=none;align=center;verticalAlign=middle;whiteSpace=wrap;rounded=0;" vertex="1" parent="1">
          <mxGeometry x="280" y="190" width="220" height="30" as="geometry" />
        </mxCell>
        <mxCell id="ewFjhbMQHwjGbqh-EtSD-17" value="" style="endArrow=none;html=1;rounded=0;exitX=-0.004;exitY=0.346;exitDx=0;exitDy=0;exitPerimeter=0;entryX=0.996;entryY=0.346;entryDx=0;entryDy=0;entryPerimeter=0;" edge="1" parent="1" source="ewFjhbMQHwjGbqh-EtSD-15" target="ewFjhbMQHwjGbqh-EtSD-15">
          <mxGeometry width="50" height="50" relative="1" as="geometry">
            <mxPoint x="380" y="260" as="sourcePoint" />
            <mxPoint x="440" y="210" as="targetPoint" />
          </mxGeometry>
        </mxCell>
        <mxCell id="ewFjhbMQHwjGbqh-EtSD-18" value="ON" style="strokeWidth=1;shadow=0;dashed=0;align=center;html=1;shape=mxgraph.mockup.forms.rrect;rSize=5;strokeColor=none;fontColor=#ffffff;fillColor=#3C6E96;fontSize=16;fontStyle=1;" vertex="1" parent="1">
          <mxGeometry x="300" y="265" width="120" height="50" as="geometry" />
        </mxCell>
        <mxCell id="ewFjhbMQHwjGbqh-EtSD-19" value="" style="endArrow=none;html=1;rounded=0;entryX=0.85;entryY=0.531;entryDx=0;entryDy=0;entryPerimeter=0;exitX=0.954;exitY=0.007;exitDx=0;exitDy=0;exitPerimeter=0;" edge="1" parent="1" source="ewFjhbMQHwjGbqh-EtSD-18" target="ewFjhbMQHwjGbqh-EtSD-15">
          <mxGeometry width="50" height="50" relative="1" as="geometry">
            <mxPoint x="420" y="265" as="sourcePoint" />
            <mxPoint x="190" y="280" as="targetPoint" />
          </mxGeometry>
        </mxCell>
        <mxCell id="ewFjhbMQHwjGbqh-EtSD-20" value="" style="endArrow=none;html=1;rounded=0;entryX=0.954;entryY=0.993;entryDx=0;entryDy=0;entryPerimeter=0;exitX=0.85;exitY=0.84;exitDx=0;exitDy=0;exitPerimeter=0;" edge="1" parent="1" source="ewFjhbMQHwjGbqh-EtSD-15" target="ewFjhbMQHwjGbqh-EtSD-18">
          <mxGeometry width="50" height="50" relative="1" as="geometry">
            <mxPoint x="460" y="270" as="sourcePoint" />
            <mxPoint x="490" y="280" as="targetPoint" />
          </mxGeometry>
        </mxCell>
        <mxCell id="ewFjhbMQHwjGbqh-EtSD-21" value="" style="endArrow=none;html=1;rounded=0;jumpSize=2;" edge="1" parent="1">
          <mxGeometry width="50" height="50" relative="1" as="geometry">
            <mxPoint x="460" y="315" as="sourcePoint" />
            <mxPoint x="460" y="265" as="targetPoint" />
          </mxGeometry>
        </mxCell>
      </root>
    </mxGraphModel>
  </diagram>
</mxfile>
